  0
SECTION
  2
HEADER
  9
$ACADVER
  1
AC1024
  9
$ACADMAINTVER
 70
6
  9
$DWGCODEPAGE
  3
ANSI_1252
  9
$LASTSAVEDBY
  1
ezdxf
  9
$INSBASE
 10
0.0
 20
0.0
 30
0.0
  9
$EXTMIN
 10
1e+20
 20
1e+20
 30
1e+20
  9
$EXTMAX
 10
-1e+20
 20
-1e+20
 30
-1e+20
  9
$LIMMIN
 10
0.0
 20
0.0
  9
$LIMMAX
 10
420.0
 20
297.0
  9
$ORTHOMODE
 70
0
  9
$REGENMODE
 70
1
  9
$FILLMODE
 70
1
  9
$QTEXTMODE
 70
0
  9
$MIRRTEXT
 70
1
  9
$LTSCALE
 40
1.0
  9
$ATTMODE
 70
1
  9
$TEXTSIZE
 40
2.5
  9
$TRACEWID
 40
1.0
  9
$TEXTSTYLE
  7
Standard
  9
$CLAYER
  8
0
  9
$CELTYPE
  6
ByLayer
  9
$CECOLOR
 62
256
  9
$CELTSCALE
 40
1.0
  9
$DISPSILH
 70
0
  9
$DIMSCALE
 40
1.0
  9
$DIMASZ
 40
2.5
  9
$DIMEXO
 40
0.625
  9
$DIMDLI
 40
3.75
  9
$DIMRND
 40
0.0
  9
$DIMDLE
 40
0.0
  9
$DIMEXE
 40
1.25
  9
$DIMTP
 40
0.0
  9
$DIMTM
 40
0.0
  9
$DIMTXT
 40
2.5
  9
$DIMCEN
 40
2.5
  9
$DIMTSZ
 40
0.0
  9
$DIMTOL
 70
0
  9
$DIMLIM
 70
0
  9
$DIMTIH
 70
0
  9
$DIMTOH
 70
0
  9
$DIMSE1
 70
0
  9
$DIMSE2
 70
0
  9
$DIMTAD
 70
1
  9
$DIMZIN
 70
8
  9
$DIMBLK
  1

  9
$DIMASO
 70
1
  9
$DIMSHO
 70
1
  9
$DIMPOST
  1

  9
$DIMAPOST
  1

  9
$DIMALT
 70
0
  9
$DIMALTD
 70
3
  9
$DIMALTF
 40
0.03937007874
  9
$DIMLFAC
 40
1.0
  9
$DIMTOFL
 70
1
  9
$DIMTVP
 40
0.0
  9
$DIMTIX
 70
0
  9
$DIMSOXD
 70
0
  9
$DIMSAH
 70
0
  9
$DIMBLK1
  1

  9
$DIMBLK2
  1

  9
$DIMSTYLE
  2
ISO-25
  9
$DIMCLRD
 70
0
  9
$DIMCLRE
 70
0
  9
$DIMCLRT
 70
0
  9
$DIMTFAC
 40
1.0
  9
$DIMGAP
 40
0.625
  9
$DIMJUST
 70
0
  9
$DIMSD1
 70
0
  9
$DIMSD2
 70
0
  9
$DIMTOLJ
 70
0
  9
$DIMTZIN
 70
8
  9
$DIMALTZ
 70
0
  9
$DIMALTTZ
 70
0
  9
$DIMUPT
 70
0
  9
$DIMDEC
 70
2
  9
$DIMTDEC
 70
2
  9
$DIMALTU
 70
2
  9
$DIMALTTD
 70
3
  9
$DIMTXSTY
  7
Standard
  9
$DIMAUNIT
 70
0
  9
$DIMADEC
 70
0
  9
$DIMALTRND
 40
0.0
  9
$DIMAZIN
 70
0
  9
$DIMDSEP
 70
44
  9
$DIMATFIT
 70
3
  9
$DIMFRAC
 70
0
  9
$DIMLDRBLK
  1

  9
$DIMLUNIT
 70
2
  9
$DIMLWD
 70
-2
  9
$DIMLWE
 70
-2
  9
$DIMTMOVE
 70
0
  9
$DIMFXL
 40
1.0
  9
$DIMFXLON
 70
0
  9
$DIMJOGANG
 40
0.785398163397
  9
$DIMTFILL
 70
0
  9
$DIMTFILLCLR
 70
0
  9
$DIMARCSYM
 70
0
  9
$DIMLTYPE
  6

  9
$DIMLTEX1
  6

  9
$DIMLTEX2
  6

  9
$DIMTXTDIRECTION
 70
0
  9
$LUNITS
 70
2
  9
$LUPREC
 70
4
  9
$SKETCHINC
 40
1.0
  9
$FILLETRAD
 40
10.0
  9
$AUNITS
 70
0
  9
$AUPREC
 70
2
  9
$MENU
  1
.
  9
$ELEVATION
 40
0.0
  9
$PELEVATION
 40
0.0
  9
$THICKNESS
 40
0.0
  9
$LIMCHECK
 70
0
  9
$CHAMFERA
 40
0.0
  9
$CHAMFERB
 40
0.0
  9
$CHAMFERC
 40
0.0
  9
$CHAMFERD
 40
0.0
  9
$SKPOLY
 70
0
  9
$TDCREATE
 40
2461306.985914352
  9
$TDUCREATE
 40
2458532.153996898
  9
$TDUPDATE
 40
2461306.985914352
  9
$TDUUPDATE
 40
2458532.1544311
  9
$TDINDWG
 40
0.0
  9
$TDUSRTIMER
 40
0.0
  9
$USRTIMER
 70
1
  9
$ANGBASE
 50
0.0
  9
$ANGDIR
 70
0
  9
$PDMODE
 70
0
  9
$PDSIZE
 40
0.0
  9
$PLINEWID
 40
0.0
  9
$SPLFRAME
 70
0
  9
$SPLINETYPE
 70
6
  9
$SPLINESEGS
 70
8
  9
$HANDSEED
  5
3A
  9
$SURFTAB1
 70
6
  9
$SURFTAB2
 70
6
  9
$SURFTYPE
 70
6
  9
$SURFU
 70
6
  9
$SURFV
 70
6
  9
$UCSBASE
  2

  9
$UCSNAME
  2

  9
$UCSORG
 10
0.0
 20
0.0
 30
0.0
  9
$UCSXDIR
 10
1.0
 20
0.0
 30
0.0
  9
$UCSYDIR
 10
0.0
 20
1.0
 30
0.0
  9
$UCSORTHOREF
  2

  9
$UCSORTHOVIEW
 70
0
  9
$UCSORGTOP
 10
0.0
 20
0.0
 30
0.0
  9
$UCSORGBOTTOM
 10
0.0
 20
0.0
 30
0.0
  9
$UCSORGLEFT
 10
0.0
 20
0.0
 30
0.0
  9
$UCSORGRIGHT
 10
0.0
 20
0.0
 30
0.0
  9
$UCSORGFRONT
 10
0.0
 20
0.0
 30
0.0
  9
$UCSORGBACK
 10
0.0
 20
0.0
 30
0.0
  9
$PUCSBASE
  2

  9
$PUCSNAME
  2

  9
$PUCSORG
 10
0.0
 20
0.0
 30
0.0
  9
$PUCSXDIR
 10
1.0
 20
0.0
 30
0.0
  9
$PUCSYDIR
 10
0.0
 20
1.0
 30
0.0
  9
$PUCSORTHOREF
  2

  9
$PUCSORTHOVIEW
 70
0
  9
$PUCSORGTOP
 10
0.0
 20
0.0
 30
0.0
  9
$PUCSORGBOTTOM
 10
0.0
 20
0.0
 30
0.0
  9
$PUCSORGLEFT
 10
0.0
 20
0.0
 30
0.0
  9
$PUCSORGRIGHT
 10
0.0
 20
0.0
 30
0.0
  9
$PUCSORGFRONT
 10
0.0
 20
0.0
 30
0.0
  9
$PUCSORGBACK
 10
0.0
 20
0.0
 30
0.0
  9
$USERI1
 70
0
  9
$USERI2
 70
0
  9
$USERI3
 70
0
  9
$USERI4
 70
0
  9
$USERI5
 70
0
  9
$USERR1
 40
0.0
  9
$USERR2
 40
0.0
  9
$USERR3
 40
0.0
  9
$USERR4
 40
0.0
  9
$USERR5
 40
0.0
  9
$WORLDVIEW
 70
1
  9
$SHADEDGE
 70
3
  9
$SHADEDIF
 70
70
  9
$TILEMODE
 70
1
  9
$MAXACTVP
 70
64
  9
$PINSBASE
 10
0.0
 20
0.0
 30
0.0
  9
$PLIMCHECK
 70
0
  9
$PEXTMIN
 10
1e+20
 20
1e+20
 30
1e+20
  9
$PEXTMAX
 10
-1e+20
 20
-1e+20
 30
-1e+20
  9
$PLIMMIN
 10
0.0
 20
0.0
  9
$PLIMMAX
 10
420.0
 20
297.0
  9
$UNITMODE
 70
0
  9
$VISRETAIN
 70
1
  9
$PLINEGEN
 70
0
  9
$PSLTSCALE
 70
1
  9
$TREEDEPTH
 70
3020
  9
$CMLSTYLE
  2
Standard
  9
$CMLJUST
 70
0
  9
$CMLSCALE
 40
20.0
  9
$PROXYGRAPHICS
 70
1
  9
$MEASUREMENT
 70
1
  9
$CELWEIGHT
370
-1
  9
$ENDCAPS
280
0
  9
$JOINSTYLE
280
0
  9
$LWDISPLAY
290
0
  9
$INSUNITS
 70
4
  9
$HYPERLINKBASE
  1

  9
$STYLESHEET
  1

  9
$XEDIT
290
1
  9
$CEPSNTYPE
380
0
  9
$PSTYLEMODE
290
1
  9
$FINGERPRINTGUID
  2
{4D64052B-8175-417A-BDEE-5ADA10CAD170}
  9
$VERSIONGUID
  2
{A67AB268-0EAC-452E-98EF-EB329010E33B}
  9
$EXTNAMES
290
1
  9
$PSVPSCALE
 40
0.0
  9
$OLESTARTUP
290
0
  9
$SORTENTS
280
127
  9
$INDEXCTL
280
0
  9
$HIDETEXT
280
1
  9
$XCLIPFRAME
280
1
  9
$HALOGAP
280
0
  9
$OBSCOLOR
 70
257
  9
$OBSLTYPE
280
0
  9
$INTERSECTIONDISPLAY
280
0
  9
$INTERSECTIONCOLOR
 70
257
  9
$DIMASSOC
280
2
  9
$PROJECTNAME
  1

  9
$CAMERADISPLAY
290
0
  9
$LENSLENGTH
 40
50.0
  9
$CAMERAHEIGHT
 40
0.0
  9
$STEPSPERSEC
 40
24.0
  9
$STEPSIZE
 40
100.0
  9
$3DDWFPREC
 40
2.0
  9
$PSOLWIDTH
 40
0.005
  9
$PSOLHEIGHT
 40
0.08
  9
$LOFTANG1
 40
1.570796326795
  9
$LOFTANG2
 40
1.570796326795
  9
$LOFTMAG1
 40
0.0
  9
$LOFTMAG2
 40
0.0
  9
$LOFTPARAM
 70
7
  9
$LOFTNORMALS
280
1
  9
$LATITUDE
 40
37.795
  9
$LONGITUDE
 40
-122.394
  9
$NORTHDIRECTION
 40
0.0
  9
$TIMEZONE
 70
-8000
  9
$LIGHTGLYPHDISPLAY
280
1
  9
$TILEMODELIGHTSYNCH
280
1
  9
$CMATERIAL
347
20
  9
$SOLIDHIST
280
0
  9
$SHOWHIST
280
1
  9
$DWFFRAME
280
2
  9
$DGNFRAME
280
2
  9
$REALWORLDSCALE
290
1
  9
$INTERFERECOLOR
 62
256
  9
$CSHADOW
280
0
  9
$SHADOWPLANELOCATION
 40
0.0
  0
ENDSEC
  0
SECTION
  2
CLASSES
  0
CLASS
  1
ACDBDICTIONARYWDFLT
  2
AcDbDictionaryWithDefault
  3
ObjectDBX Classes
 90
0
 91
0
280
0
281
0
  0
CLASS
  1
SUN
  2
AcDbSun
  3
SCENEOE
 90
1153
 91
0
280
0
281
0
  0
CLASS
  1
VISUALSTYLE
  2
AcDbVisualStyle
  3
ObjectDBX Classes
 90
4095
 91
0
280
0
281
0
  0
CLASS
  1
MATERIAL
  2
AcDbMaterial
  3
ObjectDBX Classes
 90
1153
 91
0
280
0
281
0
  0
CLASS
  1
SCALE
  2
AcDbScale
  3
ObjectDBX Classes
 90
1153
 91
0
280
0
281
0
  0
CLASS
  1
TABLESTYLE
  2
AcDbTableStyle
  3
ObjectDBX Classes
 90
4095
 91
0
280
0
281
0
  0
CLASS
  1
MLEADERSTYLE
  2
AcDbMLeaderStyle
  3
ACDB_MLEADERSTYLE_CLASS
 90
4095
 91
0
280
0
281
0
  0
CLASS
  1
DICTIONARYVAR
  2
AcDbDictionaryVar
  3
ObjectDBX Classes
 90
0
 91
0
280
0
281
0
  0
CLASS
  1
CELLSTYLEMAP
  2
AcDbCellStyleMap
  3
ObjectDBX Classes
 90
1152
 91
0
280
0
281
0
  0
CLASS
  1
MENTALRAYRENDERSETTINGS
  2
AcDbMentalRayRenderSettings
  3
SCENEOE
 90
1024
 91
0
280
0
281
0
  0
CLASS
  1
ACDBDETAILVIEWSTYLE
  2
AcDbDetailViewStyle
  3
ObjectDBX Classes
 90
1025
 91
0
280
0
281
0
  0
CLASS
  1
ACDBSECTIONVIEWSTYLE
  2
AcDbSectionViewStyle
  3
ObjectDBX Classes
 90
1025
 91
0
280
0
281
0
  0
CLASS
  1
RASTERVARIABLES
  2
AcDbRasterVariables
  3
ISM
 90
0
 91
0
280
0
281
0
  0
CLASS
  1
LAYOUT
  2
AcDbLayout
  3
ObjectDBX Classes
 90
0
 91
0
280
0
281
0
  0
CLASS
  1
ACDBPLACEHOLDER
  2
AcDbPlaceHolder
  3
ObjectDBX Classes
 90
0
 91
0
280
0
281
0
  0
ENDSEC
  0
SECTION
  2
TABLES
  0
TABLE
  2
VPORT
  5
8
330
0
100
AcDbSymbolTable
 70
1
  0
VPORT
  5
23
330
8
100
AcDbSymbolTableRecord
100
AcDbViewportTableRecord
  2
*Active
 70
0
 10
0.0
 20
0.0
 11
1.0
 21
1.0
 12
0.0
 22
0.0
 13
0.0
 23
0.0
 14
0.5
 24
0.5
 15
0.5
 25
0.5
 16
0.0
 26
0.0
 36
1.0
 17
0.0
 27
0.0
 37
0.0
 40
1000.0
 41
1.34
 42
50.0
 43
0.0
 44
0.0
 50
0.0
 51
0.0
 71
0
 72
1000
 73
1
 74
3
 75
0
 76
0
 77
0
 78
0
281
0
 65
0
146
0.0
  0
ENDTAB
  0
TABLE
  2
LTYPE
  5
2
330
0
100
AcDbSymbolTable
 70
3
  0
LTYPE
  5
24
330
2
100
AcDbSymbolTableRecord
100
AcDbLinetypeTableRecord
  2
ByBlock
 70
0
  3

 72
65
 73
0
 40
0.0
  0
LTYPE
  5
25
330
2
100
AcDbSymbolTableRecord
100
AcDbLinetypeTableRecord
  2
ByLayer
 70
0
  3

 72
65
 73
0
 40
0.0
  0
LTYPE
  5
26
330
2
100
AcDbSymbolTableRecord
100
AcDbLinetypeTableRecord
  2
Continuous
 70
0
  3

 72
65
 73
0
 40
0.0
  0
ENDTAB
  0
TABLE
  2
LAYER
  5
1
330
0
100
AcDbSymbolTable
 70
2
  0
LAYER
  5
27
330
1
100
AcDbSymbolTableRecord
100
AcDbLayerTableRecord
  2
0
 70
0
 62
7
  6
Continuous
370
-3
390
13
347
21
  0
LAYER
  5
28
330
1
100
AcDbSymbolTableRecord
100
AcDbLayerTableRecord
  2
Defpoints
 70
0
 62
7
  6
Continuous
290
0
370
-3
390
13
347
21
  0
ENDTAB
  0
TABLE
  2
STYLE
  5
5
330
0
100
AcDbSymbolTable
 70
1
  0
STYLE
  5
29
330
5
100
AcDbSymbolTableRecord
100
AcDbTextStyleTableRecord
  2
Standard
 70
0
 40
0.0
 41
1.0
 50
0.0
 71
0
 42
2.5
  3
txt
  4

  0
ENDTAB
  0
TABLE
  2
VIEW
  5
7
330
0
100
AcDbSymbolTable
 70
0
  0
ENDTAB
  0
TABLE
  2
UCS
  5
6
330
0
100
AcDbSymbolTable
 70
0
  0
ENDTAB
  0
TABLE
  2
APPID
  5
3
330
0
100
AcDbSymbolTable
 70
3
  0
APPID
  5
2A
330
3
100
AcDbSymbolTableRecord
100
AcDbRegAppTableRecord
  2
ACAD
 70
0
  0
APPID
  5
37
330
3
100
AcDbSymbolTableRecord
100
AcDbRegAppTableRecord
  2
HATCHBACKGROUNDCOLOR
 70
0
  0
APPID
  5
38
330
3
100
AcDbSymbolTableRecord
100
AcDbRegAppTableRecord
  2
EZDXF
 70
0
  0
ENDTAB
  0
TABLE
  2
DIMSTYLE
  5
4
330
0
100
AcDbSymbolTable
 70
1
100
AcDbDimStyleTable
  0
DIMSTYLE
105
2B
330
4
100
AcDbSymbolTableRecord
100
AcDbDimStyleTableRecord
  2
Standard
 70
0
 40
1.0
 41
2.5
 42
0.625
 43
3.75
 44
1.25
 45
0.0
 46
0.0
 47
0.0
 48
0.0
 49
2.5
140
2.5
141
2.5
142
0.0
143
0.03937007874
144
1.0
145
0.0
146
1.0
147
0.625
148
0.0
 69
0
 70
0
 71
0
 72
0
 73
0
 74
0
 75
0
 76
0
 77
1
 78
8
 79
3
170
0
171
3
172
1
173
0
174
0
175
0
176
0
177
0
178
0
179
2
271
2
272
2
273
2
274
3
275
0
276
0
277
2
278
44
279
0
280
0
281
0
282
0
283
0
284
8
285
0
286
0
288
0
289
3
290
0
371
-2
372
-2
  0
ENDTAB
  0
TABLE
  2
BLOCK_RECORD
  5
9
330
0
100
AcDbSymbolTable
 70
2
  0
BLOCK_RECORD
  5
17
330
9
100
AcDbSymbolTableRecord
100
AcDbBlockTableRecord
  2
*Model_Space
340
1A
 70
0
280
1
281
0
  0
BLOCK_RECORD
  5
1B
330
9
100
AcDbSymbolTableRecord
100
AcDbBlockTableRecord
  2
*Paper_Space
340
1E
 70
0
280
1
281
0
  0
ENDTAB
  0
ENDSEC
  0
SECTION
  2
BLOCKS
  0
BLOCK
  5
18
330
17
100
AcDbEntity
  8
0
100
AcDbBlockBegin
  2
*Model_Space
 70
0
 10
0.0
 20
0.0
 30
0.0
  3
*Model_Space
  1

  0
ENDBLK
  5
19
330
17
100
AcDbEntity
  8
0
100
AcDbBlockEnd
  0
BLOCK
  5
1C
330
1B
100
AcDbEntity
  8
0
100
AcDbBlockBegin
  2
*Paper_Space
 70
0
 10
0.0
 20
0.0
 30
0.0
  3
*Paper_Space
  1

  0
ENDBLK
  5
1D
330
1B
100
AcDbEntity
  8
0
100
AcDbBlockEnd
  0
ENDSEC
  0
SECTION
  2
ENTITIES
  0
LWPOLYLINE
  5
2F
330
17
100
AcDbEntity
  8
0
100
AcDbPolyline
 90
137
 70
1
 10
89.70000000000002
 20
0.05
 10
5.0
 20
0.05
 10
4.997546616283629
 20
0.049939772810258624
 10
4.507460914635826
 20
0.02586340617124349
 10
4.502577774629429
 20
0.025382458859223904
 10
4.017211866196591
 20
-0.04661477248560881
 10
4.0123993809241965
 20
-0.04757203532412063
 10
3.536427604732526
 20
-0.166796758679228
 10
3.531732121058078
 20
-0.16822111807980417
 10
3.0697383455049403
 20
-0.33352513418441504
 10
3.0652050835030376
 20
-0.3354028727873939
 10
2.6216385611984974
 20
-0.5451942136020522
 10
2.61731117866035
 20
-0.5475072477582108
 10
2.1964436976923287
 20
-0.7997655079872592
 10
2.192363869677368
 20
-0.8024915619132406
 10
1.7982486139571516
 20
-1.0947873566122825
 10
1.7944556314394222
 20
-1.0979001769185668
 10
1.4308881463249117
 20
-1.4274185377995143
 10
1.4274185377995148
 20
-1.4308881463249112
 10
1.0979001769185672
 20
-1.7944556314394213
 10
1.094787356612283
 20
-1.7982486139571507
 10
0.8024915619132414
 20
-2.1923638696773673
 10
0.7997655079872601
 20
-2.196443697692328
 10
0.5475072477582117
 20
-2.6173111786603496
 10
0.5451942136020531
 20
-2.621638561198497
 10
0.33540287278739395
 20
-3.0652050835030367
 10
0.33352513418441504
 20
-3.06973834550494
 10
0.16822111807980505
 20
-3.531732121058077
 10
0.1667967586792289
 20
-3.5364276047325247
 10
0.047572035324120666
 20
-4.012399380924193
 10
0.04661477248560879
 20
-4.017211866196589
 10
-0.025382458859223037
 20
-4.502577774629428
 10
-0.025863406171242595
 20
-4.507460914635825
 10
-0.04993977281025862
 20
-4.997546616283629
 10
-0.05
 20
-5.0
 10
-0.05
 20
-71.49999999999999
 10
-0.04993977281025861
 20
-71.50245338371636
 10
-0.025863406171242588
 20
-71.99253908536416
 10
-0.025382458859223037
 20
-71.99742222537056
 10
0.04661477248560879
 20
-72.4827881338034
 10
0.04757203532412066
 20
-72.48760061907579
 10
0.1667967586792289
 20
-72.96357239526746
 10
0.168221118079805
 20
-72.9682678789419
 10
0.333525134184415
 20
-73.43026165449504
 10
0.335402872787394
 20
-73.43479491649695
 10
0.5451942136020532
 20
-73.87836143880149
 10
0.5475072477582116
 20
-73.88268882133963
 10
0.79976550798726
 20
-74.30355630230765
 10
0.8024915619132418
 20
-74.30763613032262
 10
1.0947873566122832
 20
-74.70175138604283
 10
1.097900176918567
 20
-74.70554436856055
 10
1.4274185377995146
 20
-75.06911185367507
 10
1.4308881463249115
 20
-75.07258146220047
 10
1.794455631439422
 20
-75.40209982308143
 10
1.7982486139571523
 20
-75.40521264338771
 10
2.192363869677369
 20
-75.69750843808674
 10
2.1964436976923283
 20
-75.70023449201273
 10
2.6173111786603496
 20
-75.95249275224178
 10
2.621638561198497
 20
-75.95480578639794
 10
3.065205083503037
 20
-76.1645971272126
 10
3.0697383455049403
 20
-76.16647486581557
 10
3.531732121058078
 20
-76.33177888192019
 10
3.5364276047325265
 20
-76.33320324132076
 10
4.0123993809241965
 20
-76.45242796467586
 10
4.017211866196592
 20
-76.45338522751437
 10
4.5025777746294295
 20
-76.5253824588592
 10
4.507460914635825
 20
-76.52586340617123
 10
4.997546616283628
 20
-76.54993977281025
 10
5.0
 20
-76.54999999999998
 10
89.70000000000002
 20
-76.54999999999998
 10
89.70245338371639
 20
-76.54993977281025
 10
90.19253908536419
 20
-76.52586340617123
 10
90.19742222537059
 20
-76.5253824588592
 10
90.68278813380343
 20
-76.45338522751437
 10
90.68760061907582
 20
-76.45242796467586
 10
91.1635723952675
 20
-76.33320324132076
 10
91.16826787894193
 20
-76.33177888192019
 10
91.63026165449507
 20
-76.16647486581557
 10
91.63479491649699
 20
-76.1645971272126
 10
92.07836143880152
 20
-75.95480578639794
 10
92.08268882133966
 20
-75.95249275224178
 10
92.50355630230769
 20
-75.70023449201273
 10
92.50763613032265
 20
-75.69750843808674
 10
92.90175138604286
 20
-75.40521264338771
 10
92.90554436856058
 20
-75.40209982308143
 10
93.2691118536751
 20
-75.07258146220047
 10
93.2725814622005
 20
-75.06911185367507
 10
93.60209982308146
 20
-74.70554436856055
 10
93.60521264338774
 20
-74.70175138604283
 10
93.89750843808677
 20
-74.30763613032262
 10
93.90023449201276
 20
-74.30355630230765
 10
94.15249275224181
 20
-73.88268882133963
 10
94.15480578639797
 20
-73.87836143880149
 10
94.36459712721263
 20
-73.43479491649695
 10
94.3664748658156
 20
-73.43026165449504
 10
94.5317788819202
 20
-72.9682678789419
 10
94.53320324132078
 20
-72.96357239526746
 10
94.6524279646759
 20
-72.48760061907579
 10
94.6533852275144
 20
-72.4827881338034
 10
94.72538245885924
 20
-71.99742222537056
 10
94.72586340617127
 20
-71.99253908536416
 10
94.74993977281028
 20
-71.50245338371636
 10
94.75000000000001
 20
-71.49999999999999
 10
94.75000000000001
 20
-5.0
 10
94.74993977281028
 20
-4.99754661628363
 10
94.72586340617127
 20
-4.507460914635827
 10
94.72538245885924
 20
-4.502577774629428
 10
94.6533852275144
 20
-4.01721186619659
 10
94.6524279646759
 20
-4.012399380924196
 10
94.53320324132079
 20
-3.536427604732526
 10
94.53177888192022
 20
-3.5317321210580777
 10
94.3664748658156
 20
-3.06973834550494
 10
94.36459712721263
 20
-3.0652050835030367
 10
94.15480578639797
 20
-2.621638561198497
 10
94.15249275224181
 20
-2.6173111786603496
 10
93.90023449201276
 20
-2.1964436976923274
 10
93.89750843808677
 20
-2.192363869677368
 10
93.60521264338774
 20
-1.7982486139571514
 10
93.60209982308146
 20
-1.794455631439421
 10
93.2725814622005
 20
-1.4308881463249115
 10
93.2691118536751
 20
-1.4274185377995146
 10
92.90554436856058
 20
-1.097900176918567
 10
92.90175138604286
 20
-1.0947873566122832
 10
92.50763613032265
 20
-0.8024915619132418
 10
92.50355630230769
 20
-0.79976550798726
 10
92.08268882133966
 20
-0.5475072477582116
 10
92.07836143880152
 20
-0.5451942136020532
 10
91.63479491649699
 20
-0.335402872787394
 10
91.63026165449507
 20
-0.33352513418441504
 10
91.16826787894193
 20
-0.16822111807980417
 10
91.1635723952675
 20
-0.166796758679228
 10
90.68760061907582
 20
-0.04757203532412063
 10
90.68278813380343
 20
-0.04661477248560879
 10
90.19742222537059
 20
0.025382458859223037
 10
90.19253908536419
 20
0.025863406171242588
 10
89.70245338371639
 20
0.04993977281025861
 10
89.70000000000002
 20
0.05
  0
LWPOLYLINE
  5
30
330
17
100
AcDbEntity
  8
0
100
AcDbPolyline
 90
129
 70
1
 10
12.595166779363392
 20
-9.40373004182625
 10
12.599984936397934
 20
-9.6
 10
12.595166779363392
 20
-9.796269958173749
 10
12.580723915622084
 20
-9.99206708482705
 10
12.55669113929781
 20
-10.18691968753194
 10
12.523126347453742
 20
-10.380358349301558
 10
12.48011040061339
 20
-10.571917059456307
 10
12.427746927960417
 20
-10.761134336284982
 10
12.36616207768696
 20
-10.947554338794182
 10
12.295504213091512
 20
-11.130727964869417
 10
12.215943555158786
 20
-11.310213933201348
 10
12.127671772482435
 20
-11.48557984637114
 10
12.030901519518636
 20
-11.65640323253371
 10
11.925865924282801
 20
-11.822272563189514
 10
11.812818026723951
 20
-11.982788244592458
 10
11.69203016912908
 20
-12.137563580406606
 10
11.56379334002695
 20
-12.286225703291196
 10
11.42841647317102
 20
-12.428416473171021
 10
11.286225703291214
 20
-12.563793340026931
 10
11.137563580406582
 20
-12.692030169129096
 10
10.982788244592456
 20
-12.812818026723953
 10
10.822272563189513
 20
-12.925865924282801
 10
10.656403232533709
 20
-13.030901519518638
 10
10.48557984637114
 20
-13.127671772482437
 10
10.310213933201346
 20
-13.215943555158786
 10
10.130727964869417
 20
-13.295504213091514
 10
9.947554338794191
 20
-13.366162077686957
 10
9.76113433628497
 20
-13.427746927960422
 10
9.571917059456306
 20
-13.48011040061339
 10
9.380358349301556
 20
-13.523126347453742
 10
9.186919687531939
 20
-13.55669113929781
 10
8.992067084827049
 20
-13.580723915622084
 10
8.796269958173747
 20
-13.595166779363392
 10
8.6
 20
-13.599984936397934
 10
8.40373004182625
 20
-13.595166779363392
 10
8.207932915172949
 20
-13.580723915622084
 10
8.01308031246806
 20
-13.55669113929781
 10
7.819641650698445
 20
-13.523126347453742
 10
7.628082940543697
 20
-13.480110400613391
 10
7.438865663715018
 20
-13.427746927960417
 10
7.252445661205813
 20
-13.366162077686958
 10
7.069272035130582
 20
-13.295504213091512
 10
6.889786066798643
 20
-13.215943555158782
 10
6.714420153628875
 20
-13.127671772482445
 10
6.5435967674662745
 20
-13.030901519518627
 10
6.377727436810503
 20
-12.925865924282814
 10
6.217211755407535
 20
-12.812818026723944
 10
6.062436419593394
 20
-12.69203016912908
 10
5.913774296708803
 20
-12.56379334002695
 10
5.7715835268289695
 20
-12.42841647317101
 10
5.636206659973067
 20
-12.286225703291215
 10
5.507969830870911
 20
-12.137563580406594
 10
5.387181973276048
 20
-11.982788244592458
 10
5.274134075717188
 20
-11.8222725631895
 10
5.169098480481369
 20
-11.656403232533721
 10
5.072328227517562
 20
-11.48557984637114
 10
4.9840564448412055
 20
-11.31021393320133
 10
4.904495786908493
 20
-11.130727964869429
 10
4.833837922313037
 20
-10.947554338794177
 10
4.7722530720395815
 20
-10.761134336284986
 10
4.71988959938661
 20
-10.571917059456306
 10
4.676873652546254
 20
-10.380358349301538
 10
4.643308860702195
 20
-10.186919687531978
 10
4.619276084377916
 20
-9.992067084827045
 10
4.604833220636607
 20
-9.796269958173747
 10
4.600015063602065
 20
-9.6
 10
4.604833220636607
 20
-9.40373004182625
 10
4.619276084377916
 20
-9.207932915172952
 10
4.643308860702195
 20
-9.013080312468022
 10
4.676873652546254
 20
-8.81964165069846
 10
4.71988959938661
 20
-8.628082940543694
 10
4.772253072039582
 20
-8.438865663715012
 10
4.833837922313038
 20
-8.252445661205822
 10
4.904495786908493
 20
-8.06927203513057
 10
4.984056444841209
 20
-7.88978606679866
 10
5.072328227517555
 20
-7.714420153628875
 10
5.16909848048138
 20
-7.54359676746626
 10
5.2741340757171775
 20
-7.377727436810515
 10
5.387181973276056
 20
-7.217211755407531
 10
5.507969830870917
 20
-7.062436419593399
 10
5.63620665997306
 20
-6.913774296708792
 10
5.771583526828979
 20
-6.771583526828979
 10
5.913774296708792
 20
-6.636206659973059
 10
6.062436419593397
 20
-6.507969830870918
 10
6.217211755407535
 20
-6.387181973276054
 10
6.377727436810516
 20
-6.2741340757171775
 10
6.543596767466262
 20
-6.169098480481379
 10
6.7144201536288755
 20
-6.072328227517554
 10
6.889786066798661
 20
-5.984056444841209
 10
7.069272035130576
 20
-5.90449578690849
 10
7.252445661205822
 20
-5.833837922313037
 10
7.438865663715007
 20
-5.772253072039583
 10
7.628082940543693
 20
-5.71988959938661
 10
7.819641650698464
 20
-5.676873652546253
 10
8.013080312468022
 20
-5.643308860702196
 10
8.207932915172954
 20
-5.619276084377916
 10
8.40373004182625
 20
-5.604833220636607
 10
8.6
 20
-5.600015063602065
 10
8.796269958173749
 20
-5.604833220636607
 10
8.992067084827047
 20
-5.619276084377916
 10
9.186919687531978
 20
-5.643308860702195
 10
9.380358349301538
 20
-5.676873652546254
 10
9.571917059456306
 20
-5.71988959938661
 10
9.761134336284988
 20
-5.7722530720395815
 10
9.947554338794177
 20
-5.833837922313037
 10
10.130727964869429
 20
-5.904495786908493
 10
10.310213933201332
 20
-5.9840564448412055
 10
10.48557984637114
 20
-6.072328227517563
 10
10.656403232533721
 20
-6.169098480481369
 10
10.822272563189514
 20
-6.274134075717197
 10
10.982788244592458
 20
-6.387181973276048
 10
11.137563580406592
 20
-6.507969830870912
 10
11.286225703291214
 20
-6.636206659973067
 10
11.42841647317103
 20
-6.771583526828988
 10
11.563793340026923
 20
-6.913774296708773
 10
11.692030169129088
 20
-7.062436419593408
 10
11.812818026723944
 20
-7.217211755407535
 10
11.925865924282814
 20
-7.377727436810503
 10
12.030901519518629
 20
-7.5435967674662745
 10
12.127671772482445
 20
-7.7144201536288755
 10
12.215943555158782
 20
-7.889786066798645
 10
12.295504213091514
 20
-8.069272035130584
 10
12.36616207768696
 20
-8.252445661205817
 10
12.427746927960417
 20
-8.438865663715017
 10
12.48011040061339
 20
-8.628082940543694
 10
12.523126347453742
 20
-8.819641650698443
 10
12.55669113929781
 20
-9.013080312468057
 10
12.580723915622084
 20
-9.207932915172954
 10
12.595166779363392
 20
-9.40373004182625
  0
LWPOLYLINE
  5
31
330
17
100
AcDbEntity
  8
0
100
AcDbPolyline
 90
129
 70
1
 10
90.08072391562212
 20
-9.207932915173025
 10
90.09516677936342
 20
-9.403730041826215
 10
90.09998493639796
 20
-9.6
 10
90.09516677936342
 20
-9.796269958173784
 10
90.08072391562212
 20
-9.992067084826974
 10
90.05669113929784
 20
-10.18691968753191
 10
90.02312634745375
 20
-10.380358349301591
 10
89.98011040061344
 20
-10.571917059456196
 10
89.92774692796044
 20
-10.76113433628498
 10
89.86616207768692
 20
-10.94755433879432
 10
89.79550421309152
 20
-11.130727964869461
 10
89.71594355515886
 20
-11.310213933201247
 10
89.62767177248244
 20
-11.48557984637117
 10
89.53090151951865
 20
-11.656403232533737
 10
89.42586592428282
 20
-11.82227256318954
 10
89.31281802672409
 20
-11.9827882445923
 10
89.19203016912904
 20
-12.137563580406665
 10
89.06379334002699
 20
-12.286225703291176
 10
88.92841647317094
 20
-12.428416473171131
 10
88.78622570329134
 20
-12.563793340026837
 10
88.63756358040654
 20
-12.692030169129152
 10
88.48278824459248
 20
-12.812818026723953
 10
88.32227256318957
 20
-12.925865924282775
 10
88.15640323253379
 20
-13.030901519518604
 10
87.98557984637108
 20
-13.127671772482486
 10
87.81021393320142
 20
-13.215943555158766
 10
87.63072796486941
 20
-13.295504213091522
 10
87.44755433879425
 20
-13.366162077686944
 10
87.26113433628501
 20
-13.427746927960415
 10
87.07191705945627
 20
-13.480110400613404
 10
86.8803583493016
 20
-13.52312634745374
 10
86.68691968753195
 20
-13.556691139297811
 10
86.49206708482708
 20
-13.580723915622084
 10
86.29626995817378
 20
-13.595166779363392
 10
86.10000000000002
 20
-13.599984936397934
 10
85.90373004182626
 20
-13.595166779363392
 10
85.70793291517296
 20
-13.580723915622084
 10
85.51308031246809
 20
-13.556691139297811
 10
85.31964165069844
 20
-13.52312634745374
 10
85.12808294054378
 20
-13.480110400613404
 10
84.93886566371503
 20
-13.427746927960415
 10
84.7524456612058
 20
-13.366162077686944
 10
84.56927203513064
 20
-13.29550421309152
 10
84.38978606679862
 20
-13.215943555158766
 10
84.21442015362896
 20
-13.127671772482486
 10
84.04359676746625
 20
-13.030901519518602
 10
83.87772743681047
 20
-12.925865924282775
 10
83.71721175540756
 20
-12.812818026723951
 10
83.56243641959352
 20
-12.692030169129168
 10
83.41377429670881
 20
-12.56379334002693
 10
83.27158352682899
 20
-12.428416473171003
 10
83.13620665997306
 20
-12.286225703291176
 10
83.007969830871
 20
-12.137563580406663
 10
82.88718197327596
 20
-11.9827882445923
 10
82.77413407571723
 20
-11.822272563189538
 10
82.6690984804814
 20
-11.656403232533735
 10
82.5723282275176
 20
-11.485579846371168
 10
82.4840564448412
 20
-11.310213933201268
 10
82.4044957869085
 20
-11.130727964869408
 10
82.33383792231312
 20
-10.947554338794347
 10
82.2722530720396
 20
-10.761134336284979
 10
82.2198895993866
 20
-10.571917059456194
 10
82.17687365254629
 20
-10.38035834930159
 10
82.1433088607022
 20
-10.186919687531907
 10
82.11927608437793
 20
-9.992067084826974
 10
82.10483322063662
 20
-9.796269958173783
 10
82.10001506360209
 20
-9.6
 10
82.10483322063662
 20
-9.403730041826215
 10
82.11927608437793
 20
-9.207932915173023
 10
82.1433088607022
 20
-9.013080312468093
 10
82.17687365254629
 20
-8.819641650698408
 10
82.2198895993866
 20
-8.628082940543806
 10
82.2722530720396
 20
-8.438865663715019
 10
82.33383792231312
 20
-8.252445661205652
 10
82.4044957869085
 20
-8.069272035130592
 10
82.4840564448412
 20
-7.889786066798721
 10
82.5723282275176
 20
-7.714420153628829
 10
82.66909848048138
 20
-7.54359676746628
 10
82.77413407571724
 20
-7.377727436810453
 10
82.88718197327596
 20
-7.217211755407691
 10
83.007969830871
 20
-7.062436419593335
 10
83.13620665997304
 20
-6.913774296708842
 10
83.27158352682912
 20
-6.771583526828862
 10
83.41377429670871
 20
-6.636206659973164
 10
83.56243641959351
 20
-6.507969830870846
 10
83.71721175540756
 20
-6.387181973276049
 10
83.87772743681046
 20
-6.2741340757172335
 10
84.04359676746627
 20
-6.169098480481388
 10
84.21442015362896
 20
-6.072328227517514
 10
84.38978606679864
 20
-5.984056444841226
 10
84.56927203513064
 20
-5.904495786908475
 10
84.7524456612058
 20
-5.833837922313054
 10
84.93886566371502
 20
-5.772253072039588
 10
85.12808294054378
 20
-5.719889599386595
 10
85.31964165069844
 20
-5.676873652546259
 10
85.51308031246808
 20
-5.6433088607021915
 10
85.70793291517296
 20
-5.619276084377917
 10
85.90373004182626
 20
-5.604833220636607
 10
86.10000000000002
 20
-5.600015063602065
 10
86.29626995817378
 20
-5.604833220636607
 10
86.49206708482708
 20
-5.619276084377917
 10
86.68691968753197
 20
-5.6433088607021915
 10
86.8803583493016
 20
-5.676873652546259
 10
87.07191705945627
 20
-5.719889599386595
 10
87.26113433628502
 20
-5.772253072039588
 10
87.44755433879425
 20
-5.833837922313054
 10
87.63072796486941
 20
-5.904495786908475
 10
87.81021393320141
 20
-5.984056444841226
 10
87.98557984637108
 20
-6.072328227517515
 10
88.15640323253378
 20
-6.169098480481388
 10
88.32227256318957
 20
-6.274134075717226
 10
88.4827882445925
 20
-6.387181973276058
 10
88.63756358040654
 20
-6.507969830870847
 10
88.78622570329134
 20
-6.636206659973163
 10
88.92841647317093
 20
-6.771583526828862
 10
89.06379334002699
 20
-6.913774296708834
 10
89.19203016912905
 20
-7.062436419593344
 10
89.31281802672409
 20
-7.217211755407692
 10
89.4258659242828
 20
-7.377727436810453
 10
89.53090151951866
 20
-7.54359676746628
 10
89.62767177248244
 20
-7.71442015362883
 10
89.71594355515884
 20
-7.889786066798721
 10
89.79550421309155
 20
-8.069272035130592
 10
89.86616207768692
 20
-8.252445661205652
 10
89.92774692796044
 20
-8.438865663715019
 10
89.98011040061344
 20
-8.628082940543806
 10
90.02312634745375
 20
-8.81964165069841
 10
90.05669113929784
 20
-9.013080312468093
 10
90.08072391562212
 20
-9.207932915173025
  0
LWPOLYLINE
  5
32
330
17
100
AcDbEntity
  8
0
100
AcDbPolyline
 90
177
 70
1
 10
32.359754516100814
 20
-36.25096073597984
 10
32.35490085701649
 20
-36.25024076366639
 10
32.35000000000001
 20
-36.25
 10
16.750000000000007
 20
-36.25
 10
16.750000000000007
 20
-33.4
 10
16.749759236333617
 20
-33.39509914298352
 10
16.74903926402017
 20
-33.39024548389919
 10
16.74784701678662
 20
-33.38548576613727
 10
16.74619397662557
 20
-33.380865828381744
 10
16.744096063217423
 20
-33.3764301631587
 10
16.741573480615134
 20
-33.37222148834902
 10
16.738650522668145
 20
-33.368280335791816
 10
16.735355339059335
 20
-33.36464466094067
 10
16.73171966420819
 20
-33.36134947733186
 10
16.727778511650985
 20
-33.35842651938487
 10
16.723569836841307
 20
-33.35590393678258
 10
16.71913417161826
 20
-33.35380602337443
 10
16.71451423386273
 20
-33.35215298321339
 10
16.709754516100812
 20
-33.35096073597984
 10
16.704900857016483
 20
-33.35024076366639
 10
16.700000000000006
 20
-33.35
 10
14.250000000000007
 20
-33.35
 10
14.250000000000007
 20
-7.45
 10
16.700000000000006
 20
-7.45
 10
16.704900857016483
 20
-7.44975923633361
 10
16.709754516100812
 20
-7.449039264020162
 10
16.71451423386273
 20
-7.447847016786611
 10
16.71913417161826
 20
-7.4461939766255645
 10
16.723569836841307
 20
-7.444096063217418
 10
16.727778511650985
 20
-7.441573480615127
 10
16.73171966420819
 20
-7.438650522668137
 10
16.735355339059335
 20
-7.435355339059328
 10
16.738650522668145
 20
-7.431719664208183
 10
16.741573480615134
 20
-7.42777851165098
 10
16.744096063217423
 20
-7.4235698368413
 10
16.74619397662557
 20
-7.419134171618255
 10
16.74784701678662
 20
-7.4145142338627235
 10
16.74903926402017
 20
-7.409754516100807
 10
16.749759236333617
 20
-7.404900857016479
 10
16.750000000000007
 20
-7.4
 10
16.750000000000007
 20
-4.55
 10
80.45000000000002
 20
-4.55
 10
80.45000000000002
 20
-36.25
 10
62.35000000000001
 20
-36.25
 10
62.34509914298353
 20
-36.25024076366639
 10
62.3402454838992
 20
-36.25096073597984
 10
62.33548576613728
 20
-36.252152983213385
 10
62.330865828381754
 20
-36.25380602337443
 10
62.32643016315871
 20
-36.25590393678258
 10
62.32222148834903
 20
-36.25842651938487
 10
62.318280335791826
 20
-36.26134947733186
 10
62.31464466094068
 20
-36.26464466094067
 10
62.31134947733187
 20
-36.268280335791815
 10
62.30842651938488
 20
-36.27222148834902
 10
62.30590393678259
 20
-36.2764301631587
 10
62.30380602337444
 20
-36.28086582838174
 10
62.3021529832134
 20
-36.28548576613727
 10
62.30096073597985
 20
-36.29024548389919
 10
62.3002407636664
 20
-36.29509914298352
 10
62.30000000000001
 20
-36.3
 10
62.30000000000001
 20
-40.3
 10
62.3002407636664
 20
-40.30490085701648
 10
62.30096073597985
 20
-40.3097545161008
 10
62.3021529832134
 20
-40.314514233862724
 10
62.30380602337444
 20
-40.31913417161825
 10
62.30590393678259
 20
-40.323569836841294
 10
62.30842651938488
 20
-40.327778511650976
 10
62.31134947733187
 20
-40.33171966420818
 10
62.31464466094068
 20
-40.335355339059326
 10
62.318280335791826
 20
-40.33865052266813
 10
62.32222148834903
 20
-40.341573480615125
 10
62.32643016315871
 20
-40.344096063217414
 10
62.330865828381754
 20
-40.346193976625564
 10
62.33548576613728
 20
-40.34784701678661
 10
62.3402454838992
 20
-40.349039264020156
 10
62.34509914298353
 20
-40.349759236333604
 10
62.35000000000001
 20
-40.349999999999994
 10
85.34877256889443
 20
-40.349999999999994
 10
85.44311037289684
 20
-40.3546345191248
 10
85.5353240420034
 20
-40.36831312479626
 10
85.62575293927694
 20
-40.390964384387765
 10
85.71352618500336
 20
-40.42237015388702
 10
85.79779847484473
 20
-40.462227978565686
 10
85.87775822058163
 20
-40.51015400578345
 10
85.95263536615239
 20
-40.565686681699304
 10
86.02170880371308
 20
-40.62829119628686
 10
86.0843133183007
 20
-40.69736463384761
 10
86.13984599421651
 20
-40.77224177941836
 10
86.1877720214344
 20
-40.85220152515544
 10
86.22762984611296
 20
-40.93647381499656
 10
86.25903561561226
 20
-41.024247060723106
 10
86.28168687520376
 20
-41.11467595799665
 10
86.29536548087519
 20
-41.2068896271031
 10
86.30000000000001
 20
-41.30122743110557
 10
86.30000000000001
 20
-61.29877256889442
 10
86.29536548087519
 20
-61.39311037289689
 10
86.28168687520376
 20
-61.48532404200334
 10
86.25903561561226
 20
-61.57575293927689
 10
86.22762984611296
 20
-61.663526185003434
 10
86.1877720214344
 20
-61.74779847484456
 10
86.13984599421651
 20
-61.827758220581636
 10
86.0843133183007
 20
-61.90263536615238
 10
86.02170880371308
 20
-61.971708803713135
 10
85.95263536615239
 20
-62.03431331830069
 10
85.87775822058163
 20
-62.089845994216546
 10
85.79779847484473
 20
-62.13777202143431
 10
85.71352618500336
 20
-62.17762984611297
 10
85.62575293927694
 20
-62.20903561561223
 10
85.5353240420034
 20
-62.231686875203735
 10
85.44311037289684
 20
-62.24536548087519
 10
85.34877256889443
 20
-62.25
 10
9.351227431105583
 20
-62.25
 10
9.256889627103183
 20
-62.24536548087519
 10
9.164675957996613
 20
-62.231686875203735
 10
9.074247060723101
 20
-62.20903561561224
 10
8.986473814996605
 20
-62.17762984611296
 10
8.902201525155345
 20
-62.13777202143434
 10
8.822241779418391
 20
-62.08984599421654
 10
8.74736463384766
 20
-62.03431331830071
 10
8.678291196286885
 20
-61.97170880371308
 10
8.615686681699325
 20
-61.90263536615238
 10
8.56015400578348
 20
-61.82775822058162
 10
8.512227978565658
 20
-61.747798474844636
 10
8.47237015388706
 20
-61.66352618500342
 10
8.440964384387772
 20
-61.57575293927692
 10
8.418313124796256
 20
-61.48532404200332
 10
8.40463451912481
 20
-61.39311037289682
 10
8.40000000000001
 20
-61.29877256889456
 10
8.40000000000001
 20
-41.30122743110543
 10
8.40463451912481
 20
-41.20688962710317
 10
8.418313124796256
 20
-41.114675957996674
 10
8.440964384387772
 20
-41.02424706072308
 10
8.47237015388706
 20
-40.936473814996575
 10
8.512227978565658
 20
-40.85220152515536
 10
8.56015400578348
 20
-40.77224177941837
 10
8.615686681699325
 20
-40.69736463384761
 10
8.678291196286885
 20
-40.628291196286916
 10
8.74736463384766
 20
-40.56568668169928
 10
8.822241779418391
 20
-40.510154005783455
 10
8.902201525155345
 20
-40.46222797856566
 10
8.986473814996605
 20
-40.42237015388704
 10
9.074247060723101
 20
-40.39096438438776
 10
9.164675957996613
 20
-40.36831312479626
 10
9.256889627103183
 20
-40.3546345191248
 10
9.351227431105583
 20
-40.349999999999994
 10
32.35000000000001
 20
-40.349999999999994
 10
32.35490085701649
 20
-40.349759236333604
 10
32.359754516100814
 20
-40.349039264020156
 10
32.364514233862735
 20
-40.34784701678661
 10
32.36913417161826
 20
-40.346193976625564
 10
32.373569836841305
 20
-40.344096063217414
 10
32.37777851165099
 20
-40.341573480615125
 10
32.38171966420819
 20
-40.33865052266813
 10
32.38535533905934
 20
-40.335355339059326
 10
32.388650522668144
 20
-40.33171966420818
 10
32.391573480615136
 20
-40.327778511650976
 10
32.394096063217425
 20
-40.323569836841294
 10
32.396193976625575
 20
-40.31913417161825
 10
32.39784701678662
 20
-40.314514233862724
 10
32.39903926402017
 20
-40.3097545161008
 10
32.399759236333615
 20
-40.30490085701648
 10
32.400000000000006
 20
-40.3
 10
32.400000000000006
 20
-36.3
 10
32.399759236333615
 20
-36.29509914298352
 10
32.39903926402017
 20
-36.29024548389919
 10
32.39784701678662
 20
-36.28548576613727
 10
32.396193976625575
 20
-36.28086582838174
 10
32.394096063217425
 20
-36.2764301631587
 10
32.391573480615136
 20
-36.27222148834902
 10
32.388650522668144
 20
-36.268280335791815
 10
32.38535533905934
 20
-36.26464466094067
 10
32.38171966420819
 20
-36.26134947733186
 10
32.37777851165099
 20
-36.25842651938487
 10
32.373569836841305
 20
-36.25590393678258
 10
32.36913417161826
 20
-36.25380602337443
 10
32.364514233862735
 20
-36.252152983213385
 10
32.359754516100814
 20
-36.25096073597984
  0
LWPOLYLINE
  5
33
330
17
100
AcDbEntity
  8
0
100
AcDbPolyline
 90
129
 70
1
 10
12.580723915622084
 20
-67.50793291517293
 10
12.595166779363392
 20
-67.70373004182623
 10
12.599984936397934
 20
-67.89999999999999
 10
12.595166779363392
 20
-68.09626995817375
 10
12.580723915622084
 20
-68.29206708482705
 10
12.556691139297811
 20
-68.48691968753192
 10
12.52312634745374
 20
-68.68035834930157
 10
12.480110400613404
 20
-68.87191705945624
 10
12.427746927960415
 20
-69.06113433628498
 10
12.366162077686944
 20
-69.24755433879422
 10
12.29550421309152
 20
-69.43072796486938
 10
12.215943555158766
 20
-69.6102139332014
 10
12.127671772482485
 20
-69.78557984637105
 10
12.030901519518602
 20
-69.95640323253376
 10
11.925865924282775
 20
-70.12227256318954
 10
11.812818026723951
 20
-70.28278824459245
 10
11.692030169129168
 20
-70.43756358040649
 10
11.56379334002693
 20
-70.5862257032912
 10
11.428416473171003
 20
-70.72841647317102
 10
11.286225703291175
 20
-70.86379334002696
 10
11.137563580406663
 20
-70.99203016912901
 10
10.982788244592298
 20
-71.11281802672406
 10
10.822272563189538
 20
-71.22586592428279
 10
10.656403232533735
 20
-71.33090151951862
 10
10.485579846371168
 20
-71.42767177248241
 10
10.310213933201245
 20
-71.51594355515883
 10
10.130727964869461
 20
-71.59550421309149
 10
9.947554338794319
 20
-71.66616207768689
 10
9.761134336284979
 20
-71.72774692796041
 10
9.571917059456194
 20
-71.78011040061341
 10
9.38035834930159
 20
-71.82312634745372
 10
9.186919687531908
 20
-71.85669113929781
 10
8.992067084826973
 20
-71.88072391562208
 10
8.796269958173783
 20
-71.8951667793634
 10
8.6
 20
-71.89998493639793
 10
8.403730041826215
 20
-71.8951667793634
 10
8.207932915173025
 20
-71.88072391562208
 10
8.013080312468091
 20
-71.85669113929781
 10
7.819641650698407
 20
-71.82312634745372
 10
7.628082940543799
 20
-71.78011040061341
 10
7.438865663715018
 20
-71.72774692796041
 10
7.252445661205685
 20
-71.6661620776869
 10
7.0692720351305445
 20
-71.59550421309149
 10
6.889786066798738
 20
-71.51594355515883
 10
6.714420153628829
 20
-71.42767177248241
 10
6.54359676746628
 20
-71.33090151951863
 10
6.377727436810453
 20
-71.22586592428277
 10
6.217211755407692
 20
-71.11281802672406
 10
6.062436419593342
 20
-70.99203016912902
 10
5.913774296708833
 20
-70.86379334002696
 10
5.771583526828861
 20
-70.7284164731709
 10
5.636206659973163
 20
-70.5862257032913
 10
5.507969830870846
 20
-70.4375635804065
 10
5.387181973276049
 20
-70.28278824459245
 10
5.2741340757172335
 20
-70.12227256318955
 10
5.169098480481388
 20
-69.95640323253375
 10
5.072328227517514
 20
-69.78557984637105
 10
4.984056444841226
 20
-69.61021393320138
 10
4.904495786908475
 20
-69.43072796486938
 10
4.833837922313054
 20
-69.24755433879422
 10
4.772253072039588
 20
-69.061134336285
 10
4.719889599386595
 20
-68.87191705945624
 10
4.676873652546259
 20
-68.68035834930157
 10
4.6433088607021915
 20
-68.48691968753194
 10
4.619276084377917
 20
-68.29206708482705
 10
4.604833220636607
 20
-68.09626995817375
 10
4.600015063602065
 20
-67.89999999999999
 10
4.604833220636607
 20
-67.70373004182623
 10
4.619276084377917
 20
-67.50793291517293
 10
4.6433088607021915
 20
-67.31308031246805
 10
4.676873652546259
 20
-67.11964165069841
 10
4.719889599386595
 20
-66.92808294054375
 10
4.772253072039589
 20
-66.73886566371499
 10
4.83383792231305
 20
-66.55244566120578
 10
4.904495786908482
 20
-66.36927203513059
 10
4.984056444841226
 20
-66.1897860667986
 10
5.072328227517515
 20
-66.01442015362893
 10
5.169098480481389
 20
-65.84359676746624
 10
5.2741340757172335
 20
-65.67772743681043
 10
5.387181973276049
 20
-65.51721175540753
 10
5.507969830870847
 20
-65.36243641959348
 10
5.636206659973165
 20
-65.21377429670868
 10
5.771583526828862
 20
-65.07158352682909
 10
5.913774296708842
 20
-64.93620665997301
 10
6.062436419593335
 20
-64.80796983087097
 10
6.217211755407692
 20
-64.68718197327593
 10
6.377727436810454
 20
-64.57413407571721
 10
6.543596767466281
 20
-64.46909848048135
 10
6.71442015362883
 20
-64.37232822751757
 10
6.889786066798741
 20
-64.28405644484116
 10
7.069272035130547
 20
-64.2044957869085
 10
7.252445661205685
 20
-64.13383792231308
 10
7.43886566371502
 20
-64.07225307203957
 10
7.628082940543804
 20
-64.01988959938657
 10
7.819641650698405
 20
-63.97687365254626
 10
8.013080312468093
 20
-63.943308860702174
 10
8.207932915172885
 20
-63.91927608437791
 10
8.403730041826211
 20
-63.904833220636604
 10
8.6
 20
-63.90001506360206
 10
8.796269958173788
 20
-63.904833220636604
 10
8.992067084827116
 20
-63.91927608437791
 10
9.186919687531907
 20
-63.943308860702174
 10
9.38035834930159
 20
-63.97687365254626
 10
9.571917059456194
 20
-64.01988959938657
 10
9.76113433628498
 20
-64.07225307203957
 10
9.94755433879432
 20
-64.13383792231309
 10
10.13072796486946
 20
-64.2044957869085
 10
10.310213933201245
 20
-64.28405644484116
 10
10.485579846371168
 20
-64.37232822751757
 10
10.656403232533735
 20
-64.46909848048136
 10
10.82227256318954
 20
-64.5741340757172
 10
10.982788244592298
 20
-64.68718197327593
 10
11.137563580406663
 20
-64.80796983087097
 10
11.286225703291175
 20
-64.93620665997302
 10
11.42841647317113
 20
-65.07158352682907
 10
11.563793340026837
 20
-65.21377429670868
 10
11.692030169129152
 20
-65.36243641959348
 10
11.812818026723951
 20
-65.51721175540753
 10
11.925865924282775
 20
-65.67772743681044
 10
12.030901519518604
 20
-65.84359676746622
 10
12.127671772482486
 20
-66.01442015362893
 10
12.215943555158766
 20
-66.18978606679859
 10
12.295504213091522
 20
-66.3692720351306
 10
12.366162077686944
 20
-66.55244566120577
 10
12.427746927960415
 20
-66.738865663715
 10
12.480110400613404
 20
-66.92808294054375
 10
12.52312634745374
 20
-67.11964165069841
 10
12.556691139297811
 20
-67.31308031246806
 10
12.580723915622084
 20
-67.50793291517293
  0
LWPOLYLINE
  5
34
330
17
100
AcDbEntity
  8
0
100
AcDbPolyline
 90
65
 70
1
 10
28.723040251385214
 20
-67.6268853130894
 10
28.743198607877698
 20
-67.76278191395487
 10
28.749939700176487
 20
-67.89999999999999
 10
28.743198607877698
 20
-68.03721808604512
 10
28.723040251385214
 20
-68.17311468691058
 10
28.68965876669173
 20
-68.30638104404147
 10
28.643375635743066
 20
-68.43573372956764
 10
28.58463659039108
 20
-68.55992700641642
 10
28.514007319752714
 20
-68.67776482544039
 10
28.432168022313952
 20
-68.78811234402599
 10
28.33990685524704
 20
-68.88990685524706
 10
28.238112344026035
 20
-68.98216802231391
 10
28.127764825440465
 20
-69.06400731975266
 10
28.009927006416362
 20
-69.1346365903911
 10
27.885733729567647
 20
-69.19337563574304
 10
27.756381044041415
 20
-69.23965876669173
 10
27.6231146869106
 20
-69.2730402513852
 10
27.487218086045207
 20
-69.29319860787767
 10
27.35000000000001
 20
-69.29993970017647
 10
27.21278191395481
 20
-69.29319860787767
 10
27.076885313089416
 20
-69.2730402513852
 10
26.943618955958602
 20
-69.23965876669173
 10
26.814266270432388
 20
-69.19337563574305
 10
26.690072993583623
 20
-69.13463659039107
 10
26.572235174559566
 20
-69.06400731975266
 10
26.46188765597398
 20
-68.98216802231391
 10
26.360093144752977
 20
-68.88990685524705
 10
26.26783197768606
 20
-68.78811234402599
 10
26.185992680247303
 20
-68.67776482544039
 10
26.115363409608936
 20
-68.55992700641642
 10
26.05662436425695
 20
-68.43573372956764
 10
26.01034123330829
 20
-68.30638104404147
 10
25.976959748614803
 20
-68.17311468691058
 10
25.95680139212232
 20
-68.03721808604512
 10
25.95006029982353
 20
-67.89999999999999
 10
25.95680139212232
 20
-67.76278191395487
 10
25.976959748614803
 20
-67.6268853130894
 10
26.01034123330829
 20
-67.49361895595851
 10
26.05662436425695
 20
-67.36426627043234
 10
26.115363409608936
 20
-67.24007299358357
 10
26.185992680247303
 20
-67.12223517455959
 10
26.26783197768606
 20
-67.011887655974
 10
26.360093144752977
 20
-66.91009314475293
 10
26.46188765597398
 20
-66.81783197768607
 10
26.57223517455955
 20
-66.73599268024732
 10
26.690072993583666
 20
-66.66536340960889
 10
26.81426627043236
 20
-66.60662436425694
 10
26.943618955958602
 20
-66.56034123330825
 10
27.076885313089416
 20
-66.52695974861479
 10
27.21278191395481
 20
-66.50680139212231
 10
27.35000000000001
 20
-66.50006029982352
 10
27.487218086045207
 20
-66.50680139212231
 10
27.6231146869106
 20
-66.52695974861479
 10
27.756381044041415
 20
-66.56034123330825
 10
27.885733729567644
 20
-66.60662436425694
 10
28.00992700641638
 20
-66.66536340960891
 10
28.12776482544045
 20
-66.73599268024732
 10
28.238112344026035
 20
-66.81783197768607
 10
28.33990685524704
 20
-66.91009314475293
 10
28.432168022313956
 20
-67.011887655974
 10
28.514007319752714
 20
-67.12223517455959
 10
28.58463659039108
 20
-67.24007299358357
 10
28.643375635743066
 20
-67.36426627043234
 10
28.68965876669173
 20
-67.49361895595851
 10
28.723040251385214
 20
-67.6268853130894
  0
LWPOLYLINE
  5
35
330
17
100
AcDbEntity
  8
0
100
AcDbPolyline
 90
65
 70
1
 10
68.72304025138521
 20
-67.6268853130894
 10
68.74319860787769
 20
-67.7627819139548
 10
68.74993970017648
 20
-67.89999999999999
 10
68.74319860787769
 20
-68.03721808604519
 10
68.72304025138521
 20
-68.17311468691058
 10
68.68965876669174
 20
-68.30638104404143
 10
68.64337563574308
 20
-68.43573372956759
 10
68.58463659039107
 20
-68.55992700641642
 10
68.5140073197527
 20
-68.67776482544042
 10
68.43216802231396
 20
-68.78811234402599
 10
68.33990685524705
 20
-68.88990685524703
 10
68.238112344026
 20
-68.98216802231394
 10
68.1277648254404
 20
-69.0640073197527
 10
68.00992700641642
 20
-69.13463659039107
 10
67.88573372956766
 20
-69.19337563574304
 10
67.75638104404145
 20
-69.23965876669172
 10
67.6231146869106
 20
-69.2730402513852
 10
67.4872180860452
 20
-69.29319860787767
 10
67.35000000000001
 20
-69.29993970017647
 10
67.21278191395481
 20
-69.29319860787767
 10
67.07688531308942
 20
-69.2730402513852
 10
66.94361895595857
 20
-69.23965876669172
 10
66.81426627043241
 20
-69.19337563574307
 10
66.69007299358358
 20
-69.13463659039105
 10
66.57223517455958
 20
-69.06400731975268
 10
66.46188765597401
 20
-68.98216802231394
 10
66.36009314475297
 20
-68.88990685524703
 10
66.26783197768606
 20
-68.78811234402599
 10
66.1859926802473
 20
-68.67776482544038
 10
66.11536340960896
 20
-68.55992700641646
 10
66.05662436425692
 20
-68.43573372956759
 10
66.01034123330828
 20
-68.30638104404143
 10
65.9769597486148
 20
-68.17311468691058
 10
65.95680139212233
 20
-68.03721808604519
 10
65.95006029982353
 20
-67.89999999999999
 10
65.95680139212233
 20
-67.7627819139548
 10
65.9769597486148
 20
-67.6268853130894
 10
66.01034123330828
 20
-67.49361895595855
 10
66.05662436425693
 20
-67.3642662704324
 10
66.11536340960895
 20
-67.24007299358357
 10
66.18599268024732
 20
-67.12223517455956
 10
66.26783197768606
 20
-67.011887655974
 10
66.36009314475297
 20
-66.91009314475295
 10
66.46188765597401
 20
-66.81783197768604
 10
66.57223517455962
 20
-66.73599268024728
 10
66.6900729935836
 20
-66.66536340960891
 10
66.81426627043236
 20
-66.60662436425694
 10
66.94361895595857
 20
-66.56034123330826
 10
67.07688531308942
 20
-66.52695974861479
 10
67.21278191395481
 20
-66.50680139212231
 10
67.35000000000001
 20
-66.50006029982352
 10
67.4872180860452
 20
-66.50680139212231
 10
67.6231146869106
 20
-66.52695974861479
 10
67.75638104404145
 20
-66.56034123330826
 10
67.8857337295676
 20
-66.60662436425692
 10
68.00992700641643
 20
-66.66536340960893
 10
68.12776482544044
 20
-66.7359926802473
 10
68.238112344026
 20
-66.81783197768604
 10
68.33990685524705
 20
-66.91009314475295
 10
68.43216802231396
 20
-67.011887655974
 10
68.51400731975272
 20
-67.1222351745596
 10
68.58463659039109
 20
-67.24007299358358
 10
68.64337563574306
 20
-67.36426627043234
 10
68.68965876669174
 20
-67.49361895595855
 10
68.72304025138521
 20
-67.6268853130894
  0
LWPOLYLINE
  5
36
330
17
100
AcDbEntity
  8
0
100
AcDbPolyline
 90
129
 70
1
 10
90.08072391562212
 20
-67.507932915173
 10
90.09516677936342
 20
-67.70373004182619
 10
90.09998493639796
 20
-67.89999999999999
 10
90.09516677936342
 20
-68.09626995817379
 10
90.08072391562212
 20
-68.29206708482698
 10
90.05669113929784
 20
-68.4869196875319
 10
90.02312634745375
 20
-68.6803583493016
 10
89.98011040061346
 20
-68.87191705945614
 10
89.92774692796043
 20
-69.06113433628498
 10
89.86616207768692
 20
-69.24755433879434
 10
89.79550421309153
 20
-69.4307279648694
 10
89.71594355515883
 20
-69.6102139332013
 10
89.62767177248243
 20
-69.7855798463712
 10
89.53090151951871
 20
-69.95640323253363
 10
89.42586592428276
 20
-70.1222725631896
 10
89.31281802672409
 20
-70.28278824459233
 10
89.19203016912914
 20
-70.43756358040656
 10
89.06379334002689
 20
-70.58622570329128
 10
88.92841647317105
 20
-70.72841647317101
 10
88.7862257032913
 20
-70.86379334002686
 10
88.63756358040658
 20
-70.99203016912911
 10
88.48278824459236
 20
-71.11281802672406
 10
88.32227256318963
 20
-71.22586592428273
 10
88.15640323253366
 20
-71.33090151951868
 10
87.98557984637124
 20
-71.4276717724824
 10
87.81021393320133
 20
-71.5159435551588
 10
87.63072796486944
 20
-71.5955042130915
 10
87.44755433879438
 20
-71.66616207768689
 10
87.26113433628501
 20
-71.7277469279604
 10
87.07191705945617
 20
-71.78011040061342
 10
86.88035834930163
 20
-71.82312634745372
 10
86.68691968753193
 20
-71.85669113929781
 10
86.49206708482701
 20
-71.88072391562208
 10
86.29626995817382
 20
-71.8951667793634
 10
86.10000000000002
 20
-71.89998493639793
 10
85.90373004182622
 20
-71.8951667793634
 10
85.70793291517303
 20
-71.88072391562208
 10
85.51308031246812
 20
-71.85669113929781
 10
85.31964165069841
 20
-71.82312634745372
 10
85.12808294054388
 20
-71.78011040061342
 10
84.93886566371503
 20
-71.7277469279604
 10
84.75244566120567
 20
-71.66616207768689
 10
84.56927203513061
 20
-71.5955042130915
 10
84.38978606679872
 20
-71.5159435551588
 10
84.21442015362881
 20
-71.4276717724824
 10
84.04359676746638
 20
-71.33090151951868
 10
83.87772743681042
 20
-71.22586592428273
 10
83.71721175540769
 20
-71.11281802672406
 10
83.56243641959345
 20
-70.99203016912911
 10
83.41377429670874
 20
-70.86379334002686
 10
83.271583526829
 20
-70.72841647317102
 10
83.13620665997315
 20
-70.58622570329126
 10
83.0079698308709
 20
-70.43756358040655
 10
82.88718197327596
 20
-70.28278824459233
 10
82.77413407571728
 20
-70.1222725631896
 10
82.66909848048134
 20
-69.95640323253363
 10
82.57232822751762
 20
-69.7855798463712
 10
82.48405644484122
 20
-69.6102139332013
 10
82.4044957869085
 20
-69.4307279648694
 10
82.33383792231312
 20
-69.24755433879434
 10
82.27225307203962
 20
-69.06113433628498
 10
82.21988959938659
 20
-68.87191705945614
 10
82.17687365254629
 20
-68.6803583493016
 10
82.1433088607022
 20
-68.4869196875319
 10
82.11927608437793
 20
-68.29206708482698
 10
82.10483322063662
 20
-68.09626995817379
 10
82.10001506360209
 20
-67.89999999999999
 10
82.10483322063662
 20
-67.70373004182619
 10
82.11927608437793
 20
-67.507932915173
 10
82.1433088607022
 20
-67.31308031246809
 10
82.17687365254629
 20
-67.11964165069838
 10
82.21988959938659
 20
-66.92808294054385
 10
82.27225307203962
 20
-66.738865663715
 10
82.33383792231312
 20
-66.55244566120564
 10
82.4044957869085
 20
-66.36927203513058
 10
82.48405644484122
 20
-66.18978606679869
 10
82.57232822751762
 20
-66.01442015362878
 10
82.66909848048134
 20
-65.84359676746635
 10
82.77413407571728
 20
-65.67772743681039
 10
82.88718197327596
 20
-65.51721175540766
 10
83.0079698308709
 20
-65.36243641959344
 10
83.13620665997315
 20
-65.21377429670872
 10
83.271583526829
 20
-65.07158352682897
 10
83.41377429670875
 20
-64.93620665997312
 10
83.56243641959347
 20
-64.80796983087087
 10
83.71721175540769
 20
-64.68718197327593
 10
83.87772743681042
 20
-64.57413407571725
 10
84.04359676746638
 20
-64.4690984804813
 10
84.21442015362881
 20
-64.37232822751758
 10
84.38978606679872
 20
-64.28405644484118
 10
84.56927203513061
 20
-64.20449578690848
 10
84.75244566120567
 20
-64.13383792231309
 10
84.93886566371503
 20
-64.07225307203959
 10
85.12808294054388
 20
-64.01988959938656
 10
85.31964165069841
 20
-63.97687365254626
 10
85.51308031246812
 20
-63.943308860702174
 10
85.70793291517289
 20
-63.91927608437791
 10
85.90373004182622
 20
-63.904833220636604
 10
86.10000000000002
 20
-63.90001506360206
 10
86.29626995817382
 20
-63.904833220636604
 10
86.49206708482716
 20
-63.91927608437791
 10
86.68691968753193
 20
-63.943308860702174
 10
86.88035834930163
 20
-63.97687365254626
 10
87.07191705945617
 20
-64.01988959938656
 10
87.26113433628501
 20
-64.07225307203959
 10
87.44755433879438
 20
-64.13383792231309
 10
87.63072796486944
 20
-64.20449578690848
 10
87.81021393320133
 20
-64.28405644484118
 10
87.98557984637124
 20
-64.37232822751758
 10
88.15640323253366
 20
-64.4690984804813
 10
88.32227256318963
 20
-64.57413407571725
 10
88.48278824459236
 20
-64.68718197327593
 10
88.63756358040658
 20
-64.80796983087087
 10
88.7862257032913
 20
-64.93620665997312
 10
88.92841647317104
 20
-65.07158352682897
 10
89.06379334002689
 20
-65.21377429670872
 10
89.19203016912914
 20
-65.36243641959344
 10
89.31281802672409
 20
-65.51721175540766
 10
89.42586592428276
 20
-65.67772743681039
 10
89.53090151951871
 20
-65.84359676746635
 10
89.62767177248243
 20
-66.01442015362878
 10
89.71594355515883
 20
-66.18978606679869
 10
89.79550421309155
 20
-66.36927203513058
 10
89.86616207768692
 20
-66.55244566120564
 10
89.92774692796043
 20
-66.738865663715
 10
89.98011040061346
 20
-66.92808294054385
 10
90.02312634745375
 20
-67.11964165069838
 10
90.05669113929784
 20
-67.31308031246809
 10
90.08072391562212
 20
-67.507932915173
  0
ENDSEC
  0
SECTION
  2
OBJECTS
  0
DICTIONARY
  5
A
330
0
100
AcDbDictionary
281
1
  3
ACAD_COLOR
350
B
  3
ACAD_GROUP
350
C
  3
ACAD_LAYOUT
350
D
  3
ACAD_MATERIAL
350
E
  3
ACAD_MLEADERSTYLE
350
F
  3
ACAD_MLINESTYLE
350
10
  3
ACAD_PLOTSETTINGS
350
11
  3
ACAD_PLOTSTYLENAME
350
12
  3
ACAD_SCALELIST
350
14
  3
ACAD_TABLESTYLE
350
15
  3
ACAD_VISUALSTYLE
350
16
  3
EZDXF_META
350
2D
  0
DICTIONARY
  5
B
330
A
100
AcDbDictionary
281
1
  0
DICTIONARY
  5
C
330
A
100
AcDbDictionary
281
1
  0
DICTIONARY
  5
D
330
A
100
AcDbDictionary
281
1
  3
Model
350
1A
  3
Layout1
350
1E
  0
DICTIONARY
  5
E
330
A
100
AcDbDictionary
281
1
  3
ByBlock
350
1F
  3
ByLayer
350
20
  3
Global
350
21
  0
DICTIONARY
  5
F
330
A
100
AcDbDictionary
281
1
  3
Standard
350
2C
  0
DICTIONARY
  5
10
330
A
100
AcDbDictionary
281
1
  3
Standard
350
22
  0
DICTIONARY
  5
11
330
A
100
AcDbDictionary
281
1
  0
ACDBDICTIONARYWDFLT
  5
12
330
A
100
AcDbDictionary
281
1
  3
Normal
350
13
100
AcDbDictionaryWithDefault
340
13
  0
ACDBPLACEHOLDER
  5
13
330
12
  0
DICTIONARY
  5
14
330
A
100
AcDbDictionary
281
1
  0
DICTIONARY
  5
15
330
A
100
AcDbDictionary
281
1
  0
DICTIONARY
  5
16
330
A
100
AcDbDictionary
281
1
  0
LAYOUT
  5
1A
330
D
100
AcDbPlotSettings
  1

  4
A3
  6

 40
7.5
 41
20.0
 42
7.5
 43
20.0
 44
420.0
 45
297.0
 46
0.0
 47
0.0
 48
0.0
 49
0.0
140
0.0
141
0.0
142
1.0
143
1.0
 70
1024
 72
1
 73
0
 74
5
  7

 75
16
 76
0
 77
2
 78
300
147
1.0
148
0.0
149
0.0
100
AcDbLayout
  1
Model
 70
1
 71
0
 10
0.0
 20
0.0
 11
420.0
 21
297.0
 12
0.0
 22
0.0
 32
0.0
 14
1e+20
 24
1e+20
 34
1e+20
 15
-1e+20
 25
-1e+20
 35
-1e+20
146
0.0
 13
0.0
 23
0.0
 33
0.0
 16
1.0
 26
0.0
 36
0.0
 17
0.0
 27
1.0
 37
0.0
 76
1
330
17
  0
LAYOUT
  5
1E
330
D
100
AcDbPlotSettings
  1

  4
A3
  6

 40
7.5
 41
20.0
 42
7.5
 43
20.0
 44
420.0
 45
297.0
 46
0.0
 47
0.0
 48
0.0
 49
0.0
140
0.0
141
0.0
142
1.0
143
1.0
 70
0
 72
1
 73
0
 74
5
  7

 75
16
 76
0
 77
2
 78
300
147
1.0
148
0.0
149
0.0
100
AcDbLayout
  1
Layout1
 70
1
 71
1
 10
0.0
 20
0.0
 11
420.0
 21
297.0
 12
0.0
 22
0.0
 32
0.0
 14
1e+20
 24
1e+20
 34
1e+20
 15
-1e+20
 25
-1e+20
 35
-1e+20
146
0.0
 13
0.0
 23
0.0
 33
0.0
 16
1.0
 26
0.0
 36
0.0
 17
0.0
 27
1.0
 37
0.0
 76
1
330
1B
  0
MATERIAL
  5
1F
102
{ACAD_REACTORS
330
E
102
}
330
E
100
AcDbMaterial
  1
ByBlock
  2

 70
0
 40
1.0
 71
1
 41
1.0
 91
-1023410177
 42
1.0
 72
1
  3

 73
1
 74
1
 75
1
 44
0.5
 73
0
 45
1.0
 46
1.0
 77
1
  4

 78
1
 79
1
170
1
 48
1.0
171
1
  6

172
1
173
1
174
1
140
1.0
141
1.0
175
1
  7

176
1
177
1
178
1
143
1.0
179
1
  8

270
1
271
1
272
1
145
1.0
146
1.0
273
1
  9

274
1
275
1
276
1
 42
1.0
 72
1
  3

 73
1
 74
1
 75
1
 94
63
  0
MATERIAL
  5
20
102
{ACAD_REACTORS
330
E
102
}
330
E
100
AcDbMaterial
  1
ByLayer
  2

 70
0
 40
1.0
 71
1
 41
1.0
 91
-1023410177
 42
1.0
 72
1
  3

 73
1
 74
1
 75
1
 44
0.5
 73
0
 45
1.0
 46
1.0
 77
1
  4

 78
1
 79
1
170
1
 48
1.0
171
1
  6

172
1
173
1
174
1
140
1.0
141
1.0
175
1
  7

176
1
177
1
178
1
143
1.0
179
1
  8

270
1
271
1
272
1
145
1.0
146
1.0
273
1
  9

274
1
275
1
276
1
 42
1.0
 72
1
  3

 73
1
 74
1
 75
1
 94
63
  0
MATERIAL
  5
21
102
{ACAD_REACTORS
330
E
102
}
330
E
100
AcDbMaterial
  1
Global
  2

 70
0
 40
1.0
 71
1
 41
1.0
 91
-1023410177
 42
1.0
 72
1
  3

 73
1
 74
1
 75
1
 44
0.5
 73
0
 45
1.0
 46
1.0
 77
1
  4

 78
1
 79
1
170
1
 48
1.0
171
1
  6

172
1
173
1
174
1
140
1.0
141
1.0
175
1
  7

176
1
177
1
178
1
143
1.0
179
1
  8

270
1
271
1
272
1
145
1.0
146
1.0
273
1
  9

274
1
275
1
276
1
 42
1.0
 72
1
  3

 73
1
 74
1
 75
1
 94
63
  0
MLINESTYLE
  5
22
102
{ACAD_REACTORS
330
10
102
}
330
10
100
AcDbMlineStyle
  2
Standard
 70
0
  3

 62
256
 51
90.0
 52
90.0
 71
2
 49
0.5
 62
256
  6
BYLAYER
 49
-0.5
 62
256
  6
BYLAYER
  0
MLEADERSTYLE
  5
2C
102
{ACAD_REACTORS
330
F
102
}
330
F
100
AcDbMLeaderStyle
179
2
170
2
171
1
172
0
 90
2
 40
0.0
 41
0.0
173
1
 91
-1056964608
 92
-2
290
1
 42
2.0
291
1
 43
8.0
  3
Standard
 44
4.0
300

342
29
174
1
175
1
176
0
178
1
 93
-1056964608
 45
4.0
292
0
297
0
 46
4.0
 94
-1056964608
 47
1.0
 49
1.0
140
1.0
294
1
141
0.0
177
0
142
1.0
295
0
296
0
143
3.75
271
0
272
9
273
9
  0
DICTIONARY
  5
2D
330
A
100
AcDbDictionary
280
1
281
1
  3
CREATED_BY_EZDXF
350
2E
  3
WRITTEN_BY_EZDXF
350
39
  0
DICTIONARYVAR
  5
2E
330
2D
100
DictionaryVariables
280
0
  1
1.4.4 @ 2026-09-22T20:39:43.259362+00:00
  0
DICTIONARYVAR
  5
39
330
2D
100
DictionaryVariables
280
0
  1
1.4.4 @ 2026-09-22T20:39:43.264000+00:00
  0
ENDSEC
  0
EOF
